<svg width="80" height="93" viewBox="0 0 80 93" fill="none" xmlns="http://www.w3.org/2000/svg">
<path d="M18.6668 61.1304C14.2547 61.1304 10.6668 65.2901 10.6668 70.4051C10.6668 75.5201 14.2547 79.6798 18.6668 79.6798C23.0788 79.6798 26.6668 75.5201 26.6668 70.4051C26.6668 65.2901 23.0787 61.1304 18.6668 61.1304ZM18.6668 76.5882C15.7254 76.5882 13.3335 73.815 13.3335 70.4051C13.3335 66.995 15.7255 64.222 18.6668 64.222C21.608 64.222 24.0001 66.9952 24.0001 70.4051C24.0001 73.815 21.608 76.5882 18.6668 76.5882Z" fill="white"/>
<path d="M64 61.1304C59.588 61.1304 56 65.2901 56 70.4051C56 75.5201 59.588 79.6798 64 79.6798C68.412 79.6798 72 75.5201 72 70.4051C72 65.2901 68.412 61.1304 64 61.1304ZM64 76.5882C61.0586 76.5882 58.6667 73.815 58.6667 70.4051C58.6667 66.995 61.0588 64.222 64 64.222C66.9414 64.222 69.3333 66.9952 69.3333 70.4051C69.3333 73.815 66.9414 76.5882 64 76.5882Z" fill="white"/>
<path d="M79.788 52.565L67.788 30.9239C67.5427 30.4817 67.12 30.2144 66.6666 30.2144H52C51.2627 30.2144 50.6667 30.9069 50.6667 31.7601V70.4047C50.6667 71.2595 51.2627 71.9504 52 71.9504H57.3333V68.8588H53.3333V33.306H65.9386L77.3333 53.8557V68.8592H70.6666V71.9506H78.6666C79.4039 71.9506 79.9998 71.2597 79.9998 70.4049V53.4012C80 53.1059 79.9267 52.8137 79.788 52.565Z" fill="white"/>
<path d="M58.6667 50.3096V39.4891H69.3334V36.3975H57.3334C56.5961 36.3975 56.0002 37.09 56.0002 37.9432V51.8553C56.0002 52.7101 56.5961 53.401 57.3334 53.401H77.3334V50.3094H58.6667V50.3096Z" fill="white"/>
<path d="M52 19.394H1.33328C0.597344 19.394 0 20.0866 0 20.9398V70.405C0 71.2599 0.597344 71.9508 1.33328 71.9508H12V68.8591H2.66672V22.4855H50.6667V68.8591H25.3333V71.9508H52C52.7373 71.9508 53.3333 71.2599 53.3333 70.405V20.9398C53.3333 20.0866 52.7373 19.394 52 19.394Z" fill="white"/>
<path d="M9.33328 62.6758H1.33328V65.7674H9.33328V62.6758Z" fill="white"/>
<path d="M50.6667 62.6758H28V65.7674H50.6667V62.6758Z" fill="white"/>
<path d="M78.6666 62.6758H73.3333V65.7674H78.6666V62.6758Z" fill="white"/>
<path d="M52 25.5769H5.33328V28.6685H52V25.5769Z" fill="white"/>
<path d="M20 68.8594H17.3333V71.951H20V68.8594Z" fill="white"/>
<path d="M65.3334 68.8594H62.6667V71.951H65.3334V68.8594Z" fill="white"/>
<path d="M24 13.2107H5.33328V16.3023H24V13.2107Z" fill="white"/>
<path d="M2.66672 13.2107H0V16.3023H2.66672V13.2107Z" fill="white"/>
</svg>
