<svg width="80" height="80" viewBox="0 0 80 80" fill="none" xmlns="http://www.w3.org/2000/svg">
<path d="M36.0613 55.3614L35.0098 64.8161C34.9578 65.2864 35.1091 65.7584 35.4248 66.1117C35.7406 66.4648 36.1931 66.6667 36.6667 66.6667H43.3334C43.807 66.6667 44.2595 66.4648 44.5753 66.1117C44.8911 65.7586 45.0425 65.2865 44.9903 64.8161L43.9389 55.3614C45.6463 54.1195 46.6667 52.155 46.6667 50C46.6667 46.3233 43.6769 43.3333 40 43.3333C36.3231 43.3333 33.3333 46.3233 33.3333 50C33.3333 52.155 34.3539 54.1195 36.0613 55.3614ZM40 46.6667C41.8375 46.6667 43.3333 48.1625 43.3333 50C43.3333 51.2776 42.6073 52.4218 41.4388 52.9883C40.8023 53.2975 40.4297 53.9714 40.5078 54.6728L41.4714 63.3333H38.5288L39.4923 54.6728C39.5705 53.9712 39.1978 53.2975 38.5614 52.9883C37.3928 52.4218 36.6669 51.2776 36.6669 50C36.6667 48.1625 38.1625 46.6667 40 46.6667Z" fill="white"/>
<path d="M68.3333 30H63.3333V23.3333C63.3333 10.4672 52.8662 0 40 0C27.1337 0 16.6667 10.4672 16.6667 23.3333V30H11.6667C10.7455 30 10 30.7455 10 31.6667V73.3334C10 77.0102 12.9898 80 16.6667 80H63.3334C67.0102 80 70 77.0102 70 73.3333V31.6667C70 30.7455 69.2545 30 68.3333 30ZM20 23.3333C20 12.3047 28.9714 3.33328 40 3.33328C51.0286 3.33328 60 12.3047 60 23.3333V30H56.6667V23.3333C56.6667 14.1437 49.1895 6.66656 40 6.66656C30.8105 6.66656 23.3333 14.1439 23.3333 23.3333V30H20V23.3333ZM53.3333 23.3333V30H26.6667V23.3333C26.6667 15.9814 32.6481 10 40 10C47.3519 10 53.3333 15.9814 53.3333 23.3333ZM66.6667 73.3333C66.6667 75.1708 65.1709 76.6666 63.3334 76.6666H16.6667C14.8292 76.6666 13.3334 75.1708 13.3334 73.3333V33.3333H66.6667V73.3333Z" fill="white"/>
</svg>
